<svg xmlns="http://www.w3.org/2000/svg" xmlns:xlink="http://www.w3.org/1999/xlink" width="98" height="23" viewBox="0 0 98 23">
    <defs>
        <path id="a" d="M.017.388H13.95v14.65H.017z"/>
        <path id="c" d="M.231.13h13.932v22.428H.23z"/>
        <path id="e" d="M0 .19h14.715v14.848H0z"/>
    </defs>
    <g fill="none" fill-rule="evenodd">
        <path fill="#FFF" d="M58.35 10.447v11.186c0 .517.392.937.875.937h2.036c.483 0 .875-.42.875-.937V8.757c0-.394-.384-.654-.716-.485l-2.554 1.3a.976.976 0 0 0-.516.875M96.85 22.57h-2.036c-.483 0-.874-.413-.874-.92v-5.796c0-1.87-1.34-3.506-3.114-3.632-1.947-.137-3.572 1.49-3.572 3.508v5.92c0 .507-.392.92-.875.92h-2.036c-.483 0-.875-.413-.875-.92v-5.721c0-4.193 3.262-7.764 7.25-7.694 3.875.068 7.007 3.404 7.007 7.495v5.92c0 .507-.392.92-.875.92"/>
        <g transform="translate(66.034 7.832)">
            <mask id="b" fill="#fff">
                <use xlink:href="#a"/>
            </mask>
            <path fill="#FFF" d="M6.983 11.058c-1.754 0-3.18-1.5-3.18-3.345 0-1.844 1.426-3.344 3.18-3.344 1.754 0 3.18 1.5 3.18 3.344 0 1.844-1.426 3.345-3.18 3.345m0-10.67C3.143.388.017 3.674.017 7.713c0 4.04 3.125 7.326 6.966 7.326s6.966-3.287 6.966-7.326S10.824.388 6.983.388" mask="url(#b)"/>
        </g>
        <path fill="#FFF" d="M11.566 1.7l2.847 1.424c.403.2.403.804 0 1.004l-2.847 1.424c-.358.179-.771-.096-.771-.513V2.213c0-.417.413-.691.771-.512M52.719 13.42c.482 0 .874-.412.874-.92v-2.14c0-.51-.392-.92-.874-.92h-3.08V4.546c0-.676-.67-1.12-1.25-.83l-2.036 1.017a.925.925 0 0 0-.5.83V15.94c0 3.822 2.957 6.93 6.591 6.93h.275c.482 0 .874-.412.874-.92v-2.14c0-.509-.392-.92-.874-.92h-.275c-1.546 0-2.805-1.323-2.805-2.95v-2.52h3.08zM36.913 10.447v11.186c0 .517.392.937.875.937h2.036c.483 0 .874-.42.874-.937V8.757c0-.394-.383-.654-.715-.485l-2.554 1.3a.976.976 0 0 0-.516.875"/>
        <g transform="translate(18.086 .313)">
            <mask id="d" fill="#fff">
                <use xlink:href="#c"/>
            </mask>
            <path fill="#FFF" d="M7.197 18.577c-1.754 0-3.18-1.5-3.18-3.345 0-1.843 1.426-3.344 3.18-3.344 1.753 0 3.18 1.5 3.18 3.344 0 1.845-1.427 3.345-3.18 3.345M14.16.693c-.001-.015-.002-.03-.005-.038-.038-.394-.436-.643-.787-.468l-2.582 1.29a.755.755 0 0 0-.408.68V8.716a6.652 6.652 0 0 0-3.181-.809C3.356 7.907.23 11.194.23 15.232c0 4.04 3.125 7.326 6.966 7.326 3.84 0 6.966-3.287 6.966-7.326V.715c0-.008-.003-.015-.003-.022" mask="url(#d)"/>
        </g>
        <g transform="translate(0 7.832)">
            <mask id="f" fill="#fff">
                <use xlink:href="#e"/>
            </mask>
            <path fill="#FFF" d="M7.358 11.05c-1.947.137-3.573-1.49-3.573-3.508V2.217a.757.757 0 0 0-.408-.68L.795.247C.425.062 0 .345 0 .775v6.568c0 4.194 3.263 7.764 7.25 7.695h.216c3.987.07 7.25-3.501 7.25-7.695V.775c0-.43-.427-.713-.795-.528l-2.583 1.29a.756.756 0 0 0-.408.68v5.325c0 2.018-1.626 3.645-3.572 3.508" mask="url(#f)"/>
        </g>
    </g>
</svg>
